PLOT

Detective Raymond Pope is a detective of questionable morals, searching for his missing wife. His investigation leads
him to the wealthy estate of the enigmatic Elizabeth Kane and her young maid Irina. Under Elizabeth's fascinating looks
and aristocratic manners hides a terrifying secret,shared by her companion Irina.
 
http://www.imdb.com/title/tt0382019/

Encoded By .......: BigPerm
Runtime ..........: 1h 48mn
File Size ........: 755 MB
Resolution .......: 624 x 352
IMDb URL .........: http://www.imdb.com/title/tt0382019/
Genre ............: Horror,Mystery,Thriller
Language .........: English
Subtitles ........: None
Video
ID : 0
Format : MPEG-4 Visual
Format profile : Advanced Simple@L5
Format settings, BVOP : Yes
Format settings, QPel : No
Format settings, GMC : No warppoints
Format settings, Matrix : Default (H.263)
Muxing mode : Packed bitstream
Codec ID : XVID
Codec ID/Hint : XviD
Duration : 1h 48mn
Bit rate : 744 Kbps
Width : 624 pixels
Height : 352 pixels
Display aspect ratio : 16:9
Frame rate : 23.976 fps
Color space : YUV
Chroma subsampling : 4:2:0
Bit depth : 8 bits
Scan type : Progressive
Compression mode : Lossy
Bits/(Pixel*Frame) : 0.141
Stream size : 575 MiB (76%)
Writing library : XviD 1.2.1 (UTC 2008-12-04)
Audio
ID : 1
Format : AC-3
Format/Info : Audio Coding 3
Mode extension : CM (complete main)
Codec ID : 2000
Duration : 1h 48mn
Bit rate mode : Constant
Bit rate : 224 Kbps
Channel(s) : 2 channels
Channel positions : Front: L R
Sampling rate : 48.0 KHz
Bit depth : 16 bits
Compression mode : Lossy
Stream size : 173 MiB (23%)
Alignment : Split accross interleaves
Interleave, duration : 42 ms (1.00 video frame)
Interleave, preload duration : 500 ms